<?xml version="1.0" encoding="utf-8"?>
<!-- Generator: Adobe Illustrator 16.0.0, SVG Export Plug-In . SVG Version: 6.00 Build 0)  -->
<!DOCTYPE svg PUBLIC "-//W3C//DTD SVG 1.1//EN" "http://www.w3.org/Graphics/SVG/1.1/DTD/svg11.dtd">
<svg version="1.1" id="Layer_1" xmlns="http://www.w3.org/2000/svg" xmlns:xlink="http://www.w3.org/1999/xlink" x="0px" y="0px"
	 width="1280px" height="800px" viewBox="0 0 1280 800" enable-background="new 0 0 1280 800" xml:space="preserve">
	 <path fill="#E1D7D7" d="M-762.7-614.727c-37.79,51.929-57.96,110.79-57.06,174.184c0.89,63.395-662.86,56.632-630.74,111.208
	 	c158,0-124.26,333.172,5,331c119-2-43.41-380.893,83.09-362.893s77.5-64.772,237.5-45.772c151.26,17.963-83.5,139,134.5,188
	 	c159.8,35.918-217.689-293.28-114.5-157.5c38,50-142,139-8.5,130c88.3-5.953,8.5,266.5,293.65,330.5
	 	c300.26,67.392,150.119,222.434,490.85,346C-83.5,519-327.13,800,4,800c303.5,0,44-264,485.089-370
	 	c226.386-54.404,26-430,327.5-430c14.812-77.046,423.21-269.531,455.911-341.335c30.278-67.881-279.107-113.934-219.514-158.364
	 	c49.67-36.985,103.173-68.495,152.363-106.37c45.676-35.182,85.215-75.313,109.968-127.443
	 	c49.919-105.995,56.958-215.559,21.526-327.229c-30.779-97.02-89.657-177.04-156.912-251.22
	 	c-45.308-49.97-96.072-94.56-148.936-136.88c-55.85-44.97-116.264-83.96-180.253-116.32
	 	c-87.004-43.81-178.669-71.96-276.387-79.51c-101.415-7.81-198.615,7.07-292.445,47.11
	 	C207.189-1565.54,141.45-1519.33,81-1466.73c-63.9,54.98-119.62,118.8-165.49,189.53c-51.64,80.39-100.3,162.9-164.04,235.13
	 	c-46.25,52.408-94.76,102.424-150.77,144.204c-49.7,37.054-102.67,69.454-155.13,102.515
	 	c-54.28,34.203-107.73,69.866-159.9,122.028C-729.05-660.561-746.26-637.963-762.7-614.727z"/>
	 <path opacity="0.1" fill="#FFFFFF" enable-background="new    " d="M107,127.5c47.04-43.513,145.98-9.402,217.5-48
	 	c48.503-26.175,91.211-72.849,114.214-109.694c22.359-34.728,35.451-74.866,29.394-124.911
	 	c-7.778-62.876-42.979-133.74-103.549-212.709c-58.373-76.093-134.648-152.014-224.498-227.758
	 	C73.84-651.311,2.7-705.753-72.17-758.006c-70.62-49.405-142.47-97.701-216.98-142.996
	 	C-399.77-968.244-511.99-1030.36-627.01-1074.72c-132.391-51.07-240.61-69.32-322.94-54.12c-40.39,7.63-60.86,29.11-73.1,56.34
	 	c-13.16,29.32-17.59,63.3-29.601,93.181c-14.46,35.839-50.199,59.095-103.81,67.54c-56.351,9.445-122.82,8.714-193.8,3.396
	 	c-68.891-5.114-125.551,1.034-164.03,22.681c-55.47,31.171-61.61,87.343-20.42,167.424
	 	c38.56,74.714,50.979,138.896,29.78,188.273c-7.08,16.532-18.12,30.901-28.681,45.476c-18.6,25.735-43.04,48.091-44.7,83.714
	 	c-3.47,70.334,43.5,152.363,164.61,249.94c57.021,45.926,122.011,85.536,191.09,119.364
	 	c83.4,40.885,64.41-405.484,140.61-385.989c91.11,23.356,106.21-49.498,207,0c42.17,20.69,4.05-8.721,44.5,16.685
	 	c73.811,46.355,16.64,28.269,94.5,67.315c72.38,36.237-200.5,98.825,95,178.395C-374.21-83.266-514.93-134.538-227,21.5
	 	C172.5,238-383,700-89.5,790c452,75,196.09-326,160.5-437S67,164.5,107,127.5z"/>
</svg>
