<svg xmlns="http://www.w3.org/2000/svg" width="auto" height="100%" viewBox="0 0 1280 800" fill="none">
<path d="M1994.33 -673.323C1942.16 -725.485 1888.71 -761.148 1834.43 -795.351C1781.97 -828.412 1729 -860.812 1679.3 -897.866C1623.29 -939.646 1574.78 -989.662 1528.53 -1042.07C1464.79 -1114.3 1416.13 -1196.81 1364.49 -1277.2C1318.62 -1347.93 1262.9 -1411.75 1199 -1466.73C1138.55 -1519.33 1072.81 -1565.54 998.089 -1597.56C904.259 -1637.6 807.059 -1652.48 705.644 -1644.67C607.926 -1637.12 516.261 -1608.97 429.257 -1565.16C365.268 -1532.8 304.853 -1493.81 249.004 -1448.84C196.14 -1406.52 145.376 -1361.93 100.068 -1311.96C32.8135 -1237.78 -26.0643 -1157.76 -56.844 -1060.74C-92.2749 -949.07 -85.2361 -839.507 -35.3174 -733.512C-10.5638 -681.382 28.9745 -641.251 74.6501 -606.069C123.841 -568.194 177.344 -536.684 227.013 -499.699C286.608 -455.269 -22.7782 -409.216 7.50002 -341.335C40.2013 -269.531 448.6 -77.0464 463.411 0.000196096C764.911 0.00018356 564.525 375.596 790.911 430C1232 536 972.5 800 1276 800C1607.13 800 1363.5 519 1608.91 430C1949.64 306.434 1799.5 151.392 2099.76 84C2384.91 20.0002 2305.11 -252.453 2393.41 -246.5C2526.91 -237.5 2346.91 -326.5 2384.91 -376.5C2488.1 -512.28 2110.61 -183.082 2270.41 -219C2488.41 -268 2253.65 -389.037 2404.91 -407C2564.91 -426 2515.91 -343.228 2642.41 -361.228C2768.91 -379.228 2606.5 -0.334916 2725.5 1.66498C2854.76 3.83733 2572.5 -329.335 2730.5 -329.335C2762.62 -383.911 2098.87 -377.148 2099.76 -440.543C2100.66 -503.937 2080.49 -562.798 2042.7 -614.727C2026.26 -637.963 2009.05 -660.561 1994.33 -673.323Z" fill="#D95E56"/>
<path opacity="0.1" d="M1209 353C1173.41 464 917.5 865 1369.5 790C1663 700 1107.5 238 1507 21.5003C1794.93 -134.538 1654.21 -83.2657 1921 -155.105C2216.5 -234.675 1943.62 -297.263 2016 -333.5C2093.86 -372.546 2036.69 -354.46 2110.5 -400.815C2150.95 -426.221 2112.83 -396.81 2155 -417.5C2255.79 -466.998 2270.89 -394.144 2362 -417.5C2438.2 -436.995 2419.21 9.37402 2502.61 -31.5107C2571.69 -65.3394 2636.68 -104.949 2693.7 -150.875C2814.81 -248.452 2861.78 -330.481 2858.31 -400.815C2856.65 -436.438 2832.21 -458.794 2813.61 -484.529C2803.05 -499.104 2792.01 -513.473 2784.93 -530.005C2763.73 -579.382 2776.15 -643.564 2814.71 -718.278C2855.9 -798.359 2849.76 -854.531 2794.29 -885.702C2755.81 -907.349 2699.15 -913.497 2630.26 -908.383C2559.28 -903.065 2492.81 -902.334 2436.46 -911.779C2382.85 -920.224 2347.11 -943.48 2332.65 -979.319C2320.64 -1009.2 2316.21 -1043.18 2303.05 -1072.5C2290.81 -1099.73 2270.34 -1121.21 2229.95 -1128.84C2147.62 -1144.04 2039.4 -1125.79 1907.01 -1074.72C1791.99 -1030.36 1679.77 -968.244 1569.15 -901.002C1494.64 -855.707 1422.79 -807.411 1352.17 -758.006C1277.3 -705.753 1206.16 -651.311 1139.94 -595.572C1050.09 -519.828 973.815 -443.907 915.441 -367.814C854.872 -288.845 819.671 -217.981 811.892 -155.105C805.835 -105.06 818.927 -64.9219 841.286 -30.194C864.289 6.65143 906.997 53.3251 955.5 79.5003C1027.02 118.098 1125.96 83.9869 1173 127.5C1213 164.5 1244.59 242 1209 353Z" fill="white"/>
</svg>