<svg width="80" height="80" viewBox="0 0 80 80" fill="none" xmlns="http://www.w3.org/2000/svg">
<path d="M57.7538 59.6695C58.8204 59.2104 59.7015 58.3538 60.2528 57.3299C61.0115 55.9344 61.1492 54.2331 60.3006 52.8145C59.5404 51.5422 57.6375 50.0514 56.1782 49.6843C54.609 49.2923 52.6967 49.3622 51.4056 50.413C50.853 50.8596 50.4695 51.4886 50.3388 52.135C50.2527 52.3756 50.1867 52.6253 50.1621 52.8877C50.0346 54.4384 50.6059 56.0093 51.3921 57.3189C52.5796 59.3146 55.6135 60.5973 57.7538 59.6695Z" fill="#D95E56"/>
<path d="M57.1049 46.816C57.6203 49.0412 60.4708 50.5908 62.4867 50.1201C63.56 49.8691 64.3914 49.0472 64.5052 47.4505C64.813 43.2805 55.944 41.8091 57.1049 46.816Z" fill="#D95E56"/>
<path d="M59.3869 37.4586C55.1645 40.9849 63.4755 44.9325 65.5139 40.8891C66.3077 39.3257 65.4322 37.5049 63.5949 36.7824C62.1605 36.2128 60.5565 36.4788 59.3869 37.4586Z" fill="#D95E56"/>
<path d="M57.3243 34.6553C58.4538 36.3631 61.031 36.1659 62.4932 34.9167C63.2425 34.2817 63.6976 33.3715 63.5267 32.3069C63.4713 31.9432 63.1044 31.5245 62.8567 31.2629C60.8045 29.1087 55.4317 31.7836 57.3243 34.6553Z" fill="#D95E56"/>
<path d="M59.0349 26.4653C57.1041 23.6249 51.3849 27.2728 53.5001 30.1785C54.4643 31.4978 56.4589 31.2084 57.5903 30.3524C58.6213 29.5713 59.9034 27.7404 59.0349 26.4653Z" fill="#D95E56"/>
<path d="M28.769 46.8809C31.7596 45.2707 34.7661 45.2311 37.7101 46.9606C39.5597 48.0446 41.0412 49.548 43.1295 50.206C48.0019 51.7433 53.491 48.8114 54.8367 43.8833C55.2345 42.4348 55.527 40.5976 55.3789 39.0961C55.1385 36.7018 54.2399 33.8426 52.4909 32.1286C49.9625 29.6506 46.0598 29.401 42.7207 29.3817C39.4257 29.3593 36.1492 29.509 32.9194 30.195C28.0193 31.2441 22.4646 32.5476 18.2292 35.3475C17.1441 36.0647 16.1413 36.9324 15.3484 37.968C13.9955 39.7374 13.1029 41.9203 13.3677 44.1773C13.4082 44.5329 13.4813 44.8888 13.5774 45.2379C14.2108 47.4731 15.8862 49.7566 18.1413 50.4877C20.0818 51.1196 21.9266 50.6621 23.6737 49.8335C25.4615 48.9904 27.1563 47.7497 28.769 46.8809Z" fill="#D95E56"/>
</svg>
