<svg width="94" height="94" viewBox="0 0 94 94" fill="none" xmlns="http://www.w3.org/2000/svg">
<path d="M56.9815 33.5006C56.1678 35.8005 57.3458 38.3476 59.6083 39.1271C61.2195 39.678 62.8207 39.3662 64.1496 38.5348C67.2378 36.6038 68.746 32.0255 65.017 29.8095C63.2822 28.7789 61.3686 29.1924 59.6761 30.1028C58.3806 30.8002 57.47 32.1375 56.9815 33.5006Z" fill="#D95E56"/>
<path d="M62.7764 42.5341C63.022 46.2512 68.6308 45.4247 69.6275 42.5758C69.9175 41.7373 69.8375 41.0712 69.5263 40.5605C68.5225 38.9403 65.1272 38.935 63.6968 40.3386C63.0961 40.9207 62.7155 41.697 62.7764 42.5341Z" fill="#D95E56"/>
<path d="M69.6532 50.692C70.7676 49.2703 69.8366 47.4767 68.4846 46.7172C66.7981 45.7651 64.2231 46.6022 63.4387 48.3153C61.8698 51.7413 67.8714 52.9637 69.6532 50.692Z" fill="#D95E56"/>
<path d="M67.1701 54.8929C66.7972 53.7636 65.4991 53.1289 64.4494 52.8411C63.4793 52.5713 62.3938 52.5215 61.6493 53.2497C61.3201 53.576 61.2079 53.8675 61.2088 54.3277C61.2174 58.3903 68.3998 58.6321 67.1701 54.8929Z" fill="#D95E56"/>
<path d="M61.6444 58.1293C60.7184 57.485 59.2344 56.7762 58.148 57.3873C57.1961 57.9224 57.1177 59.328 57.631 60.1913C58.4648 61.5739 59.6453 62.4234 61.2658 61.7831C62.9053 61.1293 63.0584 59.1134 61.6444 58.1293Z" fill="#D95E56"/>
<path d="M57.2274 39.5382C53.3248 36.2072 47.4335 36.6452 43.4614 39.5882C42.1653 40.5524 40.7448 41.5401 39.045 41.1687C37.5965 40.8523 36.3486 39.7802 35.1453 38.9819C33.4435 37.8477 31.8954 36.2304 29.9134 35.5977C27.3155 34.7652 23.6617 35.6651 21.9133 37.724C21.0172 38.7831 20.5785 40.939 20.6281 42.2834C20.6913 43.9315 21.4178 45.4765 22.334 46.8213C24.4157 49.8758 27.6556 51.7647 30.9082 53.3395C34.3164 54.988 37.8968 56.4855 41.5819 57.4035C47.9001 58.9769 55.7219 58.9429 59.4397 52.6073C61.5586 48.9883 60.3182 42.175 57.2274 39.5382Z" fill="#D95E56"/>
</svg>
