<svg width="100%" height="auto" viewBox="0 0 1280 736" fill="none" xmlns="http://www.w3.org/2000/svg">
<g clip-path="url(#clip0)">
<g clip-path="url(#clip1)">
<g clip-path="url(#clip2)">
<path d="M-1326.42 -1758.55C-1179.66 -1751.28 -1055.86 -1724.57 -933.161 -1695.26C-814.573 -1666.95 -696.283 -1637.29 -575.368 -1616.68C-439.051 -1593.46 -300.324 -1588.33 -160.996 -1588.56C31.0075 -1588.88 218.496 -1618.77 406.755 -1642.71C572.947 -1663.26 741.823 -1664.26 908.27 -1645.71C1066.6 -1628.79 1222.36 -1598.48 1368.76 -1541.82C1552.34 -1470.49 1702.78 -1367.8 1824.85 -1235.37C1942.44 -1107.75 2021.25 -965.209 2070.52 -811.408C2106.54 -698.136 2127.94 -582.059 2134.38 -465.083C2140.86 -354.633 2141.15 -244.279 2126.24 -134.782C2104.05 27.7821 2062.12 186.413 1957.7 329.121C1837.53 493.381 1664.5 603.445 1440.25 657.228C1329.69 683.432 1217.57 678.568 1104.75 660.841C983.269 641.734 865.616 610.463 744.834 589.807C599.838 565.082 449.445 571.271 308.062 607.781C157.619 645.579 17.9768 702.389 -116.707 767.734C-247.567 831.103 -388.166 872.555 -539.275 882.708C-756.998 897.377 -948.959 844.689 -1115.95 727.454C-1271.48 617.967 -1449.31 541.376 -1651.8 508.387C-1719.55 497.325 -1788.88 491.834 -1857.85 485.728C-1979.51 474.901 -2102.9 472.488 -2219.86 437.186C-2451.22 367.659 -2612.08 243.548 -2664.07 40.8838C-2688.52 -54.5117 -2675.82 -150.127 -2635.98 -243.237C-2588.02 -355.691 -2505.15 -448.361 -2404.47 -532.706C-2284.22 -633.609 -2176.36 -742.042 -2118.68 -878.036C-2094.49 -934.912 -2075.91 -993.544 -2070.41 -1053.83C-2060.35 -1163.83 -2048.92 -1273.34 -2006.94 -1379.23C-1967.73 -1477.59 -1906.94 -1565.55 -1813.37 -1635.3C-1719.8 -1705.06 -1605.23 -1744.16 -1477.79 -1754.22C-1421.38 -1759.29 -1364.91 -1762.72 -1326.42 -1758.55Z" fill="#EAF1F9"/>
</g>
</g>
<rect y="203" width="1280" height="277" fill="#EAF1F9"/>
<g clip-path="url(#clip3)">
<g clip-path="url(#clip4)">
<path d="M2399.04 2723.26C2273.94 2708.58 2169.57 2674.21 2066.29 2637.13C1966.47 2601.31 1866.98 2564.05 1764.74 2536.34C1649.47 2505.11 1531.12 2493.09 1411.95 2486.75C1247.72 2478.02 1085.68 2501.08 923.323 2517.75C780.028 2531.83 635.542 2524.93 494.24 2497.26C359.789 2471.72 228.292 2432.01 106.288 2364.61C-46.6798 2279.79 -169.531 2163.06 -266.433 2015.91C-359.786 1874.12 -419.124 1718.23 -452.558 1551.71C-476.954 1429.09 -488.694 1304.16 -487.584 1178.98C-486.874 1060.76 -480.883 942.937 -461.93 826.748C-433.76 654.25 -388.922 486.885 -291.551 339.468C-179.482 169.787 -25.2722 60.4608 169.556 13.6352C265.59 -9.11718 361.206 1.3707 456.689 25.624C559.503 51.7586 658.354 90.6987 760.483 118.454C883.09 151.697 1012.06 152.193 1135.04 119.894C1265.84 86.6482 1388.48 32.5955 1507.37 -30.802C1622.87 -92.2715 1745.46 -129.884 1875.27 -133.586C2062.3 -138.963 2223.49 -73.6495 2359.68 59.3911C2486.5 183.619 2634.25 273.783 2805.56 318.564C2862.87 333.572 2921.86 342.709 2980.5 352.485C3083.93 369.789 3189.33 378.193 3287.36 421.403C3481.29 506.553 3611.84 646.645 3644.84 865.455C3660.35 968.449 3644.08 1069.92 3604.74 1167.44C3557.36 1285.23 3481.25 1380.24 3390.37 1465.53C3281.83 1567.57 3183.44 1678.23 3126.42 1820.69C3102.52 1880.27 3083.3 1941.98 3075.19 2006.08C3060.37 2123.03 3044.39 2239.4 3002.5 2350.46C2963.4 2453.62 2906.44 2544.64 2822.47 2614.69C2738.5 2684.74 2638.3 2721.07 2528.74 2725.79C2480.21 2728.54 2431.72 2729.54 2399.04 2723.26Z" fill="#EAF1F9"/>
</g>
</g>
</g>
<defs>
<clipPath id="clip0">
<rect width="1280" height="736" fill="white"/>
</clipPath>
<clipPath id="clip1">
<path d="M1841.7 951.992L-741.126 964.849L-743.883 411.095L1838.94 398.238L1841.7 951.992Z" fill="white"/>
</clipPath>
<clipPath id="clip2">
<path d="M2040.53 1017.12L-2741.95 780.378L-2543.77 -1820.5L2238.7 -1583.75L2040.53 1017.12Z" fill="white"/>
</clipPath>
<clipPath id="clip3">
<path d="M-157.102 -320L2052.54 -211.742L2023.57 379.548L-186.071 271.291L-157.102 -320Z" fill="white"/>
</clipPath>
<clipPath id="clip4">
<path d="M-323.467 -398.922L3753.28 79.6852L3436.66 2846.89L-640.087 2368.28L-323.467 -398.922Z" fill="white"/>
</clipPath>
</defs>
</svg>
